<svg viewBox="0 0 1200 800" xmlns="http://www.w3.org/2000/svg" preserveAspectRatio="none">
  <rect width="1200" height="800" fill="#1a4a3c"></rect>
  <path d="M0,180 C300,90 500,260 750,170 C950,100 1100,210 1200,150 L1200,0 L0,0 Z" fill="#cb742f"></path>
  <path d="M0,300 C280,210 520,360 780,280 C1000,210 1120,320 1200,270 L1200,150 C1100,210 950,100 750,170 C500,260 300,90 0,180 Z" fill="#e2a25c"></path>
  <path d="M0,470 C300,560 540,400 800,500 C1010,580 1120,470 1200,520 L1200,640 C1100,600 980,690 760,610 C520,520 280,660 0,580 Z" fill="#467a5c"></path>
  <path d="M0,580 C280,660 520,520 760,610 C980,690 1100,600 1200,640 L1200,800 L0,800 Z" fill="#215c46"></path>
  <path d="M0,300 C280,210 520,360 780,280 C1000,210 1120,320 1200,270" fill="none" stroke="#f0d698" stroke-width="4" opacity="0.7"></path>
  <path d="M0,470 C300,560 540,400 800,500 C1010,580 1120,470 1200,520" fill="none" stroke="#f0d698" stroke-width="4" opacity="0.6"></path>
</svg>
